<svg width="83" height="45" viewBox="0 0 83 45" fill="none" xmlns="http://www.w3.org/2000/svg">
<path d="M3.59375 7.99219H24.0039V11.9961H7.59766V20.0039H21.6016V24.0078H7.59766V36H3.59375V7.99219ZM29.6094 36V7.99219H44.9414C49.4727 7.99219 51.7383 10.2643 51.7383 14.8086V18.793C51.7383 23.3372 49.4727 25.6094 44.9414 25.6094H33.6133V36H29.6094ZM33.6133 21.6055H44.7266C45.7943 21.6055 46.5625 21.3711 47.0312 20.9023C47.5 20.4336 47.7344 19.6654 47.7344 18.5977V15.0039C47.7344 13.9362 47.5 13.168 47.0312 12.6992C46.5625 12.2305 45.7943 11.9961 44.7266 11.9961H33.6133V21.6055ZM61.3477 24.0078C60.8008 24.0078 60.2799 23.9036 59.7852 23.6953C59.3034 23.474 58.8802 23.1875 58.5156 22.8359C58.151 22.4714 57.8646 22.0482 57.6562 21.5664C57.4479 21.0716 57.3438 20.5508 57.3438 20.0039V11.9961C57.3438 11.4492 57.4479 10.9349 57.6562 10.4531C57.8646 9.95833 58.151 9.53516 58.5156 9.18359C58.8802 8.81901 59.3034 8.53255 59.7852 8.32422C60.2799 8.10286 60.8008 7.99219 61.3477 7.99219H74.9414C75.4883 7.99219 76.0026 8.10286 76.4844 8.32422C76.9792 8.53255 77.4089 8.81901 77.7734 9.18359C78.138 9.53516 78.4245 9.95833 78.6328 10.4531C78.8411 10.9349 78.9453 11.4492 78.9453 11.9961V15.6094H74.9414V11.9961H61.3477V20.0039H74.9414C75.4883 20.0039 76.0026 20.1081 76.4844 20.3164C76.9792 20.5247 77.4089 20.8112 77.7734 21.1758C78.138 21.5404 78.4245 21.9701 78.6328 22.4648C78.8411 22.9466 78.9453 23.4609 78.9453 24.0078V31.9961C78.9453 32.543 78.8411 33.0638 78.6328 33.5586C78.4245 34.0404 78.138 34.4635 77.7734 34.8281C77.4089 35.1927 76.9792 35.4792 76.4844 35.6875C76.0026 35.8958 75.4883 36 74.9414 36H60.957C60.4102 36 59.8893 35.8958 59.3945 35.6875C58.9128 35.4792 58.4896 35.1927 58.125 34.8281C57.7604 34.4635 57.474 34.0404 57.2656 33.5586C57.0573 33.0638 56.9531 32.543 56.9531 31.9961V28.4023H60.957V31.9961H74.9414V24.0078H61.3477Z" fill="#EDF4EB"/>
<rect x="2" width="77" height="3" fill="#EDF4EB"/>
<rect x="2" y="41.5" width="77" height="3" fill="#EDF4EB"/>
</svg>
